<svg xmlns="http://www.w3.org/2000/svg" width="512" height="512" viewBox="0 0 512 512" version="1.1">
	<path d="M 153.500 1.056 C 123.564 3.131, 94.598 13.439, 70 30.774 C 64.775 34.456, 55.318 42.650, 48.984 48.984 C 19.577 78.391, 3.889 113.186, 0.969 155.480 C -0.200 172.420, -0.200 339.580, 0.969 356.520 C 3.890 398.824, 19.567 433.586, 48.992 463.006 C 78.432 492.441, 113.176 508.110, 155.480 511.031 C 172.420 512.200, 339.580 512.200, 356.520 511.031 C 370.879 510.039, 386.742 507.132, 397.500 503.521 C 410.747 499.074, 416.022 496.845, 415.460 495.935 C 415.150 495.433, 415.482 495.239, 416.198 495.504 C 417.954 496.152, 430.898 488.956, 442.240 481.025 C 454.116 472.721, 472.652 454.167, 481.226 442 C 498.635 417.296, 509.122 387.826, 510.684 359.216 C 511.023 353.010, 511.683 347.696, 512.150 347.407 C 512.618 347.118, 513 305.482, 513 254.882 C 513 204.282, 512.616 163.119, 512.147 163.409 C 511.678 163.699, 511.018 158.888, 510.681 152.718 C 509.122 124.175, 498.619 94.681, 481.226 70 C 472.648 57.828, 454.172 39.352, 442 30.774 C 416.736 12.970, 388.687 3.190, 356.520 0.969 C 340.943 -0.106, 169.214 -0.032, 153.500 1.056 M 223 20.500 C 223 20.775, 223.225 21, 223.500 21 C 223.775 21, 224 20.775, 224 20.500 C 224 20.225, 223.775 20, 223.500 20 C 223.225 20, 223 20.225, 223 20.500 M 149.145 37.078 C 145.650 37.531, 140.250 38.458, 137.145 39.139 C 130.342 40.629, 130.067 40.697, 129.750 40.949 C 129.613 41.059, 128.375 41.353, 127 41.603 C 125.625 41.853, 124.358 42.470, 124.185 42.973 C 124.012 43.476, 123.225 43.640, 122.435 43.337 C 121.646 43.034, 121 43.311, 121 43.952 C 121 44.593, 120.605 44.874, 120.121 44.575 C 119.638 44.276, 117.726 44.796, 115.871 45.731 C 114.017 46.665, 111.833 47.533, 111.018 47.660 C 110.203 47.787, 109.377 48.368, 109.183 48.952 C 108.988 49.535, 108.418 49.758, 107.915 49.447 C 107.412 49.136, 107 49.385, 107 50 C 107 50.615, 106.480 50.797, 105.845 50.405 C 105.205 50.008, 104.960 50.126, 105.295 50.669 C 105.628 51.207, 93.192 64.326, 77.659 79.823 C 62.127 95.321, 49.580 108, 49.778 108 C 49.975 108, 49.175 109.350, 48 111 C 46.825 112.650, 46.135 114, 46.467 114 C 46.799 114, 46.508 115.013, 45.821 116.250 C 45.133 117.487, 44.551 118.725, 44.527 119 C 44.502 119.275, 43.768 121.525, 42.894 124 C 40.279 131.408, 39.201 135.260, 38.413 140 C 38.002 142.475, 37.448 145.400, 37.184 146.500 C 36.919 147.600, 36.529 195.075, 36.317 252 C 35.887 367.438, 35.884 367.372, 42.570 387.783 C 53.058 419.802, 77.266 447.664, 107.904 462.982 C 116.031 467.046, 132.290 472.363, 142 474.133 C 152.695 476.082, 358.999 476.148, 369.500 474.205 C 416.344 465.538, 454.932 432.206, 469.360 387.946 C 475.699 368.502, 475.500 372.775, 475.500 256 C 475.500 139.201, 475.700 143.503, 469.349 124.020 C 454.034 77.041, 411.688 42.535, 362.637 37.066 C 351.259 35.797, 158.938 35.808, 149.145 37.078 M 103 51.500 C 103 51.775, 103.225 52, 103.500 52 C 103.775 52, 104 51.775, 104 51.500 C 104 51.225, 103.775 51, 103.500 51 C 103.225 51, 103 51.225, 103 51.500 M 101 52.500 C 101 52.775, 101.225 53, 101.500 53 C 101.775 53, 102 52.775, 102 52.500 C 102 52.225, 101.775 52, 101.500 52 C 101.225 52, 101 52.225, 101 52.500 M 94 57.500 C 94 57.775, 94.225 58, 94.500 58 C 94.775 58, 95 57.775, 95 57.500 C 95 57.225, 94.775 57, 94.500 57 C 94.225 57, 94 57.225, 94 57.500 M 91 58.500 C 91 58.775, 91.225 59, 91.500 59 C 91.775 59, 92 58.775, 92 58.500 C 92 58.225, 91.775 58, 91.500 58 C 91.225 58, 91 58.225, 91 58.500 M 89 60.500 C 89 60.775, 89.225 61, 89.500 61 C 89.775 61, 90 60.775, 90 60.500 C 90 60.225, 89.775 60, 89.500 60 C 89.225 60, 89 60.225, 89 60.500 M 84.872 63.750 C 83.629 65.336, 83.664 65.371, 85.250 64.128 C 86.916 62.821, 87.445 62, 86.622 62 C 86.415 62, 85.627 62.788, 84.872 63.750 M 81.405 66.155 C 80.962 66.870, 81.130 67.038, 81.845 66.595 C 82.998 65.883, 83.393 65, 82.559 65 C 82.316 65, 81.797 65.520, 81.405 66.155 M 77.405 70.250 L 75.500 72.500 77.750 70.595 C 78.987 69.547, 80 68.535, 80 68.345 C 80 67.545, 79.195 68.136, 77.405 70.250 M 73.405 74.155 C 72.962 74.870, 73.130 75.038, 73.845 74.595 C 74.480 74.203, 75 73.684, 75 73.441 C 75 72.607, 74.117 73.002, 73.405 74.155 M 95 77.500 C 95 77.775, 95.225 78, 95.500 78 C 95.775 78, 96 77.775, 96 77.500 C 96 77.225, 95.775 77, 95.500 77 C 95.225 77, 95 77.225, 95 77.500 M 66.924 80.750 L 64.500 83.500 67.250 81.076 C 69.820 78.810, 70.459 78, 69.674 78 C 69.495 78, 68.258 79.237, 66.924 80.750 M 63.405 85.155 C 62.962 85.870, 63.130 86.038, 63.845 85.595 C 64.480 85.203, 65 84.684, 65 84.441 C 65 83.607, 64.117 84.002, 63.405 85.155 M 60.405 89.250 L 58.500 91.500 60.750 89.595 C 61.987 88.547, 63 87.535, 63 87.345 C 63 86.545, 62.195 87.136, 60.405 89.250 M 55.405 96.155 C 54.962 96.870, 55.130 97.038, 55.845 96.595 C 56.480 96.203, 57 95.684, 57 95.441 C 57 94.607, 56.117 95.002, 55.405 96.155 M 54 98.500 C 54 98.775, 54.225 99, 54.500 99 C 54.775 99, 55 98.775, 55 98.500 C 55 98.225, 54.775 98, 54.500 98 C 54.225 98, 54 98.225, 54 98.500 M 52 102.500 C 52 102.775, 52.225 103, 52.500 103 C 52.775 103, 53 102.775, 53 102.500 C 53 102.225, 52.775 102, 52.500 102 C 52.225 102, 52 102.225, 52 102.500 M 28 119.500 C 28 119.775, 28.225 120, 28.500 120 C 28.775 120, 29 119.775, 29 119.500 C 29 119.225, 28.775 119, 28.500 119 C 28.225 119, 28 119.225, 28 119.500 M 0.480 256 C 0.480 306.875, 0.601 327.688, 0.750 302.250 C 0.898 276.812, 0.898 235.187, 0.750 209.750 C 0.601 184.312, 0.480 205.125, 0.480 256 M 24 167.500 C 24 167.775, 24.225 168, 24.500 168 C 24.775 168, 25 167.775, 25 167.500 C 25 167.225, 24.775 167, 24.500 167 C 24.225 167, 24 167.225, 24 167.500 M 313.507 173.615 C 310.211 174.412, 303.711 176.905, 299.063 179.154 C 292.355 182.401, 288.921 184.936, 282.409 191.448 C 275.461 198.396, 273.426 201.247, 269.112 210.080 C 262.028 224.585, 259.768 235.206, 259.768 254 C 259.768 272.640, 262.044 283.459, 268.918 297.496 C 277.329 314.669, 290.221 326.192, 307.882 332.319 C 315.173 334.849, 318.425 335.377, 329 335.750 C 351.766 336.552, 367.232 331.007, 381.034 317.094 C 394.440 303.580, 398.692 291.884, 399.701 265.750 L 400.309 250 366.654 250 L 333 250 333 262.102 L 333 274.203 352.154 273.468 L 371.308 272.733 370.645 277.617 C 369.463 286.317, 367.035 291.800, 361.856 297.467 C 346.874 313.860, 318.484 313.672, 302.655 297.077 C 292.031 285.939, 288.582 275.382, 288.582 254 C 288.582 232.793, 292.685 220.410, 303.193 209.902 C 318.107 194.988, 344.886 194.628, 359.053 209.151 C 362.969 213.167, 368.997 223.832, 368.999 226.750 C 369 227.694, 372.649 228, 383.911 228 L 398.823 228 397.448 222.107 C 394.155 207.993, 388.655 198.527, 378.161 188.911 C 370.695 182.070, 359.355 176.126, 348.936 173.595 C 340.715 171.597, 321.810 171.608, 313.507 173.615 M 160.641 175.494 C 158.971 179.846, 105.627 330.757, 105.231 332.250 C 104.804 333.861, 105.995 334, 120.266 334 L 135.765 334 142.632 313.500 L 149.500 293.001 178 293.006 L 206.500 293.012 213.460 313.118 C 217.288 324.176, 220.908 333.411, 221.504 333.640 C 222.100 333.869, 229.126 333.931, 237.117 333.778 L 251.646 333.500 222.977 254 L 194.308 174.500 177.770 174.226 C 163.626 173.992, 161.146 174.176, 160.641 175.494 M 174.087 217.212 C 171.065 228.092, 160.417 261.604, 158.506 266.250 C 157.835 267.882, 159.125 268, 177.643 268.002 L 197.500 268.004 189.269 242.752 C 184.741 228.863, 180.241 214.670, 179.269 211.212 L 177.500 204.924 174.087 217.212 M 501 277.500 C 501 277.775, 501.225 278, 501.500 278 C 501.775 278, 502 277.775, 502 277.500 C 502 277.225, 501.775 277, 501.500 277 C 501.225 277, 501 277.225, 501 277.500 M 505 341.500 C 505 341.775, 505.225 342, 505.500 342 C 505.775 342, 506 341.775, 506 341.500 C 506 341.225, 505.775 341, 505.500 341 C 505.225 341, 505 341.225, 505 341.500 M 20 358.500 C 20 358.775, 20.225 359, 20.500 359 C 20.775 359, 21 358.775, 21 358.500 C 21 358.225, 20.775 358, 20.500 358 C 20.225 358, 20 358.225, 20 358.500 M 273 491.500 C 273 491.775, 273.225 492, 273.500 492 C 273.775 492, 274 491.775, 274 491.500 C 274 491.225, 273.775 491, 273.500 491 C 273.225 491, 273 491.225, 273 491.500 M 276 498.500 C 276 498.775, 276.225 499, 276.500 499 C 276.775 499, 277 498.775, 277 498.500 C 277 498.225, 276.775 498, 276.500 498 C 276.225 498, 276 498.225, 276 498.500 M 309 498.500 C 309 498.775, 309.225 499, 309.500 499 C 309.775 499, 310 498.775, 310 498.500 C 310 498.225, 309.775 498, 309.500 498 C 309.225 498, 309 498.225, 309 498.500 M 175 503.500 C 175 503.775, 175.225 504, 175.500 504 C 175.775 504, 176 503.775, 176 503.500 C 176 503.225, 175.775 503, 175.500 503 C 175.225 503, 175 503.225, 175 503.500 M 313 503.500 C 313 503.775, 313.225 504, 313.500 504 C 313.775 504, 314 503.775, 314 503.500 C 314 503.225, 313.775 503, 313.500 503 C 313.225 503, 313 503.225, 313 503.500 M 278 509.500 C 278 509.775, 278.225 510, 278.500 510 C 278.775 510, 279 509.775, 279 509.500 C 279 509.225, 278.775 509, 278.500 509 C 278.225 509, 278 509.225, 278 509.500 M 321 510.500 C 321 510.775, 321.225 511, 321.500 511 C 321.775 511, 322 510.775, 322 510.500 C 322 510.225, 321.775 510, 321.500 510 C 321.225 510, 321 510.225, 321 510.500" stroke="none" fill="#ffffff" fill-rule="evenodd"/>
</svg>