<?xml version="1.0" encoding="UTF-8"?>
<svg version="1.1" xmlns="http://www.w3.org/2000/svg" width="512" height="512">
<path d="M0 0 C1.32100941 -0.00551503 1.32100941 -0.00551503 2.66870588 -0.01114148 C5.60828044 -0.02211978 8.54781957 -0.02601229 11.4874115 -0.02983093 C13.60050568 -0.03610038 15.71359877 -0.0427476 17.82669067 -0.04974365 C24.76038349 -0.07074247 31.69407641 -0.08114733 38.62779236 -0.09111023 C41.02296396 -0.0951604 43.41813544 -0.0992774 45.81330681 -0.10346031 C57.07723943 -0.12250876 68.34116555 -0.13673628 79.60511118 -0.14507228 C92.56088445 -0.15482088 105.51648578 -0.18107964 118.47219855 -0.22157317 C128.51336618 -0.25186746 138.55448494 -0.26655401 148.59569734 -0.26985329 C154.5789828 -0.27219007 160.56208454 -0.28096912 166.54532051 -0.30631447 C172.18840404 -0.32983186 177.83118602 -0.33373465 183.47430611 -0.32355309 C185.52754223 -0.32306319 187.58079441 -0.32921887 189.63398361 -0.34310913 C236.55130766 -0.64233643 277.32717944 17.80489273 311.03013611 50.14717102 C313.54127841 52.69050745 315.80474531 55.35082138 318.03013611 58.14717102 C318.6815155 58.96266418 318.6815155 58.96266418 319.34605408 59.79463196 C326.95024864 69.39324441 333.44473808 79.2497458 339.03013611 90.14717102 C339.58314392 91.22353821 340.13615173 92.2999054 340.70591736 93.40888977 C350.01964205 112.58986801 356.18215809 134.72977435 356.17730713 156.11703491 C356.18098382 156.99770785 356.18466051 157.87838079 356.18844861 158.78574079 C356.19942691 161.72531535 356.20331942 164.66485448 356.20713806 167.60444641 C356.21340751 169.71754059 356.22005473 171.83063368 356.22705078 173.94372559 C356.2480496 180.87741841 356.25845446 187.81111132 356.26841736 194.74482727 C356.27246753 197.13999887 356.27658453 199.53517035 356.28076744 201.93034172 C356.29981589 213.19427435 356.31404341 224.45820047 356.32237941 235.72214609 C356.33212801 248.67791936 356.35838677 261.63352069 356.3988803 274.58923346 C356.42917459 284.6304011 356.44386114 294.67151985 356.44716042 304.71273226 C356.4494972 310.69601771 356.45827624 316.67911945 356.4836216 322.66235542 C356.50713899 328.30543895 356.51104178 333.94822093 356.50086021 339.59134102 C356.50037032 341.64457714 356.506526 343.69782933 356.52041626 345.75101852 C356.81964356 392.66834258 338.3724144 433.44421436 306.03013611 467.14717102 C303.48679968 469.65831332 300.82648575 471.92178023 298.03013611 474.14717102 C297.486474 474.58142395 296.94281189 475.01567688 296.38267517 475.46308899 C286.78406272 483.06728355 276.92756133 489.56177299 266.03013611 495.14717102 C264.95376892 495.70017883 263.87740173 496.25318665 262.76841736 496.82295227 C243.58743912 506.13667696 221.44753278 512.299193 200.06027222 512.29434204 C198.73926281 512.29985707 198.73926281 512.29985707 197.39156634 512.30548352 C194.45199178 512.31646182 191.51245265 512.32035433 188.57286072 512.32417297 C186.45976654 512.33044242 184.34667344 512.33708964 182.23358154 512.34408569 C175.29988872 512.36508451 168.36619581 512.37548938 161.43247986 512.38545227 C159.03730826 512.38950244 156.64213678 512.39361944 154.24696541 512.39780235 C142.98303278 512.4168508 131.71910666 512.43107832 120.45516104 512.43941432 C107.49938777 512.44916292 94.54378644 512.47542169 81.58807367 512.51591522 C71.54690603 512.5462095 61.50578728 512.56089605 51.46457487 512.56419533 C45.48128942 512.56653211 39.49818768 512.57531116 33.51495171 512.60065651 C27.87186817 512.62417391 22.2290862 512.62807669 16.58596611 512.61789513 C14.53272999 512.61740523 12.4794778 512.62356091 10.4262886 512.63745117 C-36.49103545 512.93667848 -77.26690723 494.48944931 -110.96986389 462.14717102 C-113.48100619 459.60383459 -115.7444731 456.94352067 -117.96986389 454.14717102 C-118.40411682 453.60350891 -118.83836975 453.0598468 -119.28578186 452.49971008 C-126.88997642 442.90109763 -133.38446586 433.04459624 -138.96986389 422.14717102 C-139.5228717 421.07080383 -140.07587952 419.99443665 -140.64564514 418.88545227 C-149.95936983 399.70447403 -156.12188588 377.56456769 -156.11703491 356.17730713 C-156.1207116 355.29663419 -156.12438829 354.41596125 -156.12817639 353.50860125 C-156.13915469 350.56902669 -156.1430472 347.62948756 -156.14686584 344.68989563 C-156.15313529 342.57680145 -156.15978251 340.46370836 -156.16677856 338.35061646 C-156.18777738 331.41692363 -156.19818225 324.48323072 -156.20814514 317.54951477 C-156.21219531 315.15434317 -156.21631231 312.75917169 -156.22049522 310.36400032 C-156.23954367 299.10006769 -156.25377119 287.83614158 -156.26210719 276.57219595 C-156.27185579 263.61642268 -156.29811456 250.66082135 -156.33860809 237.70510858 C-156.36890237 227.66394095 -156.38358892 217.62282219 -156.38688821 207.58160979 C-156.38922498 201.59832433 -156.39800403 195.61522259 -156.42334938 189.63198662 C-156.44686678 183.98890309 -156.45076957 178.34612111 -156.440588 172.70300102 C-156.4400981 170.6497649 -156.44625378 168.59651272 -156.46014404 166.54332352 C-156.75937135 119.62599947 -138.31214218 78.85012769 -105.96986389 45.14717102 C-103.42652746 42.63602872 -100.76621354 40.37256182 -97.96986389 38.14717102 C-97.42620178 37.71291809 -96.88253967 37.27866516 -96.32240295 36.83125305 C-86.7237905 29.22705849 -76.86728911 22.73256905 -65.96986389 17.14717102 C-64.35531311 16.3176593 -64.35531311 16.3176593 -62.70814514 15.47138977 C-43.5271669 6.15766508 -21.38726056 -0.00485096 0 0 Z " fill="#AB9EEC" transform="translate(155.96986389160156,-0.1471710205078125)"/>
<path d="M0 0 C10.89 0 21.78 0 33 0 C39.48505279 17.16787165 45.78074288 34.39530839 51.96601868 51.67297363 C53.20020586 55.11908172 54.43653391 58.56442139 55.67285156 62.00976562 C55.92431883 62.71055803 56.17578609 63.41135044 56.43487358 64.13337898 C56.94735012 65.56152943 57.45983631 66.98967641 57.972332 68.41781998 C58.74778729 70.57893848 59.52303664 72.74013076 60.29824829 74.90133667 C65.69223539 89.93761678 71.10689529 104.9664275 76.52646255 119.99350357 C77.24607413 121.98911287 77.96541533 123.98481941 78.68466187 125.9805603 C80.02353138 129.69559657 81.36325886 133.41032305 82.703125 137.125 C83.09585098 138.21484695 83.48857697 139.30469391 83.89320374 140.42756653 C84.26005783 141.4440477 84.62691193 142.46052887 85.00488281 143.5078125 C85.34507446 144.45172852 85.68526611 145.39564453 86.0357666 146.36816406 C86.91791084 148.77594096 87.83854045 151.16512225 88.76855469 153.5546875 C90 157 90 157 90 160 C80.1 160 70.2 160 60 160 C58.32565317 155.28673928 56.65263814 150.57304748 54.98291016 145.8581543 C54.4153156 144.25664605 53.8469679 142.65540451 53.27783203 141.05444336 C52.45664168 138.74403652 51.63822681 136.43266207 50.8203125 134.12109375 C50.56814972 133.41351425 50.31598694 132.70593475 50.05618286 131.97691345 C49.8160849 131.2967366 49.57598694 130.61655975 49.32861328 129.91577148 C49.11987579 129.32730942 48.91113831 128.73884735 48.69607544 128.1325531 C47.71118241 125.11515502 46.87198344 122.05194206 46 119 C17.29 119.495 17.29 119.495 -12 120 C-16.23654559 132.78883565 -16.23654559 132.78883565 -20.46655273 145.57983398 C-20.99699509 147.17699963 -21.52765999 148.77409139 -22.05859375 150.37109375 C-22.33417114 151.20805786 -22.60974854 152.04502197 -22.89367676 152.90734863 C-24.8859282 158.8859282 -24.8859282 158.8859282 -26 160 C-28.21855264 160.08783542 -30.43988496 160.10694609 -32.66015625 160.09765625 C-33.65685585 160.09553383 -33.65685585 160.09553383 -34.6736908 160.09336853 C-36.80333899 160.08775518 -38.93288339 160.07520054 -41.0625 160.0625 C-42.50325369 160.05748671 -43.94400903 160.05292351 -45.38476562 160.04882812 C-48.92321102 160.03778145 -52.46159539 160.02050792 -56 160 C-53.44929178 149.33521575 -49.58135523 139.11403876 -45.875 128.8125 C-45.15870222 126.8117757 -44.44289248 124.81087661 -43.72753906 122.80981445 C-42.61061822 119.6855438 -41.49342047 116.56137565 -40.37475586 113.43772888 C-36.81774158 103.50398642 -33.29804703 93.55721122 -29.78250122 83.60873413 C-19.92344945 55.71472496 -9.96226942 27.85726631 0 0 Z " fill="#010101" transform="translate(161,174)"/>
<path d="M0 0 C11.16115206 8.72173858 19.40532861 20.34542634 23 34.125 C23.33 37.095 23.66 40.065 24 43.125 C14.76 43.125 5.52 43.125 -4 43.125 C-5.134375 40.65 -6.26875 38.175 -7.4375 35.625 C-12.30780714 25.6163324 -18.10142843 19.63608126 -28.73828125 15.81640625 C-29.48464844 15.58824219 -30.23101562 15.36007813 -31 15.125 C-31.60070312 14.93421875 -32.20140625 14.7434375 -32.8203125 14.546875 C-43.78464401 12.42474632 -54.91587321 13.72166193 -64.42578125 19.6328125 C-75.87953696 27.91031663 -82.6955237 40.22545927 -85 54.125 C-86.54629793 74.49341722 -85.66735485 95.15899576 -72.5625 111.8125 C-65.98598596 118.89199791 -55.92109484 123.74238688 -46.3125 124.36328125 C-34.14888103 124.67868672 -23.56088677 123.38706368 -13.96484375 115.14453125 C-6.25857009 107.22376886 -4.20713925 97.58943667 -2 87.125 C-2.68924561 87.18558594 -3.37849121 87.24617188 -4.08862305 87.30859375 C-28.38519971 89.41904558 -28.38519971 89.41904558 -40 89.125 C-40 81.205 -40 73.285 -40 65.125 C-18.55 65.125 2.9 65.125 25 65.125 C25 114.69850152 25 114.69850152 6.86328125 133.55078125 C-9.40772801 148.1791511 -29.10441931 152.24053468 -50.45117188 151.31591797 C-67.5337338 150.03636209 -84.26517102 141.10371286 -95.46875 128.3046875 C-109.31880389 110.62278536 -114.40473627 91.13324286 -114.375 69 C-114.37445618 68.31624298 -114.37391235 67.63248596 -114.37335205 66.92800903 C-114.33397588 56.15201024 -113.57033215 46.32276122 -110 36.125 C-109.5875 34.92617187 -109.175 33.72734375 -108.75 32.4921875 C-101.51475902 13.78744519 -88.85911773 0.91808089 -71 -7.875 C-47.47891606 -17.27801397 -20.85166826 -14.46024151 0 0 Z " fill="#010102" transform="translate(374,184.875)"/>
<path d="M0 0 C2.91201639 2.91201639 3.35100405 6.49063464 4.375 10.375 C7.72823539 22.66202959 11.83734513 34.68498145 15.94873047 46.73388672 C16.33732994 47.88086281 16.33732994 47.88086281 16.73377991 49.05101013 C17.22192973 50.49141096 17.71389679 51.93052617 18.21043396 53.36805725 C19.54432224 57.31051785 20.30629397 60.83776384 21 65 C7.8 65 -5.4 65 -19 65 C-17.87775157 57.14426101 -17.87775157 57.14426101 -16.3984375 53.1640625 C-16.07641357 52.27678467 -15.75438965 51.38950684 -15.42260742 50.4753418 C-15.07689697 49.534729 -14.73118652 48.59411621 -14.375 47.625 C-10.26600541 36.16061633 -6.95448021 24.54842641 -3.77490234 12.79833984 C-2.58759975 8.51073355 -1.30293755 4.25369068 0 0 Z " fill="#A89BE6" transform="translate(177,204)"/>
</svg>
